<mxfile host="app.diagrams.net" modified="2022-08-10T22:33:59.448Z" agent="5.0 (Windows NT 10.0; Win64; x64) AppleWebKit/537.36 (KHTML, like Gecko) Chrome/104.0.0.0 Safari/537.36" etag="VxvFuu1kRPMgjjP1PwbX" version="20.2.3" type="github">
  <diagram id="-eitLj4S31XV4_M0R__X" name="Sayfa -1">
    <mxGraphModel dx="2062" dy="1114" grid="1" gridSize="10" guides="1" tooltips="1" connect="1" arrows="1" fold="1" page="1" pageScale="1" pageWidth="827" pageHeight="1169" math="0" shadow="0">
      <root>
        <mxCell id="0" />
        <mxCell id="1" parent="0" />
        <mxCell id="d0uKtJr3sExeUl2TqwTk-1" value="&lt;h1&gt;&lt;span style=&quot;background-color: rgb(255, 255, 255); font-family: Nunito, sans-serif; font-weight: bolder; letter-spacing: -0.64px;&quot;&gt;&lt;font style=&quot;font-size: 26px;&quot;&gt;[7, 5, 1, 8, 3, 6, 0, 9, 4, 2]&lt;/font&gt;&lt;/span&gt;&lt;br&gt;&lt;/h1&gt;" style="text;html=1;strokeColor=none;fillColor=none;spacing=5;spacingTop=-20;whiteSpace=wrap;overflow=hidden;rounded=0;" vertex="1" parent="1">
          <mxGeometry x="270" y="40" width="341" height="40" as="geometry" />
        </mxCell>
        <mxCell id="d0uKtJr3sExeUl2TqwTk-25" value="" style="edgeStyle=orthogonalEdgeStyle;rounded=0;orthogonalLoop=1;jettySize=auto;html=1;fontSize=28;entryX=0.5;entryY=0;entryDx=0;entryDy=0;" edge="1" parent="1" source="d0uKtJr3sExeUl2TqwTk-2" target="d0uKtJr3sExeUl2TqwTk-5">
          <mxGeometry relative="1" as="geometry">
            <mxPoint x="414" y="270" as="targetPoint" />
          </mxGeometry>
        </mxCell>
        <mxCell id="d0uKtJr3sExeUl2TqwTk-26" style="edgeStyle=orthogonalEdgeStyle;rounded=0;orthogonalLoop=1;jettySize=auto;html=1;entryX=0.5;entryY=0;entryDx=0;entryDy=0;fontSize=28;" edge="1" parent="1" source="d0uKtJr3sExeUl2TqwTk-2" target="d0uKtJr3sExeUl2TqwTk-9">
          <mxGeometry relative="1" as="geometry">
            <mxPoint x="520" y="240" as="targetPoint" />
          </mxGeometry>
        </mxCell>
        <mxCell id="d0uKtJr3sExeUl2TqwTk-2" value="&lt;font style=&quot;font-size: 28px;&quot;&gt;7&lt;/font&gt;" style="ellipse;whiteSpace=wrap;html=1;aspect=fixed;" vertex="1" parent="1">
          <mxGeometry x="390" y="110" width="80" height="80" as="geometry" />
        </mxCell>
        <mxCell id="d0uKtJr3sExeUl2TqwTk-34" style="edgeStyle=orthogonalEdgeStyle;rounded=0;orthogonalLoop=1;jettySize=auto;html=1;entryX=0.5;entryY=0;entryDx=0;entryDy=0;fontSize=28;" edge="1" parent="1" source="d0uKtJr3sExeUl2TqwTk-5" target="d0uKtJr3sExeUl2TqwTk-32">
          <mxGeometry relative="1" as="geometry" />
        </mxCell>
        <mxCell id="d0uKtJr3sExeUl2TqwTk-38" style="edgeStyle=orthogonalEdgeStyle;rounded=0;orthogonalLoop=1;jettySize=auto;html=1;entryX=0.5;entryY=0;entryDx=0;entryDy=0;fontSize=28;exitX=1;exitY=0.5;exitDx=0;exitDy=0;" edge="1" parent="1" source="d0uKtJr3sExeUl2TqwTk-5" target="d0uKtJr3sExeUl2TqwTk-37">
          <mxGeometry relative="1" as="geometry">
            <mxPoint x="340" y="300" as="sourcePoint" />
          </mxGeometry>
        </mxCell>
        <mxCell id="d0uKtJr3sExeUl2TqwTk-5" value="&lt;font style=&quot;font-size: 28px;&quot;&gt;5&lt;/font&gt;" style="ellipse;whiteSpace=wrap;html=1;aspect=fixed;" vertex="1" parent="1">
          <mxGeometry x="230" y="210" width="80" height="80" as="geometry" />
        </mxCell>
        <mxCell id="d0uKtJr3sExeUl2TqwTk-28" style="edgeStyle=orthogonalEdgeStyle;rounded=0;orthogonalLoop=1;jettySize=auto;html=1;exitX=1;exitY=0.5;exitDx=0;exitDy=0;fontSize=28;" edge="1" parent="1" source="d0uKtJr3sExeUl2TqwTk-9" target="d0uKtJr3sExeUl2TqwTk-18">
          <mxGeometry relative="1" as="geometry" />
        </mxCell>
        <mxCell id="d0uKtJr3sExeUl2TqwTk-9" value="&lt;font style=&quot;font-size: 28px;&quot;&gt;8&lt;/font&gt;" style="ellipse;whiteSpace=wrap;html=1;aspect=fixed;" vertex="1" parent="1">
          <mxGeometry x="560" y="200" width="80" height="80" as="geometry" />
        </mxCell>
        <mxCell id="d0uKtJr3sExeUl2TqwTk-18" value="&lt;font style=&quot;font-size: 28px;&quot;&gt;9&lt;/font&gt;" style="ellipse;whiteSpace=wrap;html=1;aspect=fixed;" vertex="1" parent="1">
          <mxGeometry x="640" y="280" width="80" height="80" as="geometry" />
        </mxCell>
        <mxCell id="d0uKtJr3sExeUl2TqwTk-36" style="edgeStyle=orthogonalEdgeStyle;rounded=0;orthogonalLoop=1;jettySize=auto;html=1;entryX=0.5;entryY=0;entryDx=0;entryDy=0;fontSize=28;" edge="1" parent="1" source="d0uKtJr3sExeUl2TqwTk-32" target="d0uKtJr3sExeUl2TqwTk-35">
          <mxGeometry relative="1" as="geometry">
            <mxPoint x="250" y="370" as="sourcePoint" />
          </mxGeometry>
        </mxCell>
        <mxCell id="d0uKtJr3sExeUl2TqwTk-41" style="edgeStyle=orthogonalEdgeStyle;rounded=0;orthogonalLoop=1;jettySize=auto;html=1;exitX=0;exitY=0.5;exitDx=0;exitDy=0;entryX=0.5;entryY=0;entryDx=0;entryDy=0;fontSize=28;" edge="1" parent="1" source="d0uKtJr3sExeUl2TqwTk-32" target="d0uKtJr3sExeUl2TqwTk-39">
          <mxGeometry relative="1" as="geometry" />
        </mxCell>
        <mxCell id="d0uKtJr3sExeUl2TqwTk-32" value="&lt;font style=&quot;font-size: 28px;&quot;&gt;1&lt;/font&gt;" style="ellipse;whiteSpace=wrap;html=1;aspect=fixed;" vertex="1" parent="1">
          <mxGeometry x="140" y="280" width="80" height="80" as="geometry" />
        </mxCell>
        <mxCell id="d0uKtJr3sExeUl2TqwTk-43" style="edgeStyle=orthogonalEdgeStyle;rounded=0;orthogonalLoop=1;jettySize=auto;html=1;entryX=0.5;entryY=0;entryDx=0;entryDy=0;fontSize=28;" edge="1" parent="1" source="d0uKtJr3sExeUl2TqwTk-35" target="d0uKtJr3sExeUl2TqwTk-42">
          <mxGeometry relative="1" as="geometry" />
        </mxCell>
        <mxCell id="d0uKtJr3sExeUl2TqwTk-46" style="edgeStyle=orthogonalEdgeStyle;rounded=0;orthogonalLoop=1;jettySize=auto;html=1;exitX=0;exitY=0.5;exitDx=0;exitDy=0;entryX=0.5;entryY=0;entryDx=0;entryDy=0;fontSize=28;" edge="1" parent="1" source="d0uKtJr3sExeUl2TqwTk-35" target="d0uKtJr3sExeUl2TqwTk-44">
          <mxGeometry relative="1" as="geometry" />
        </mxCell>
        <mxCell id="d0uKtJr3sExeUl2TqwTk-35" value="&lt;font style=&quot;font-size: 28px;&quot;&gt;3&lt;/font&gt;" style="ellipse;whiteSpace=wrap;html=1;aspect=fixed;" vertex="1" parent="1">
          <mxGeometry x="260" y="410" width="80" height="80" as="geometry" />
        </mxCell>
        <mxCell id="d0uKtJr3sExeUl2TqwTk-37" value="&lt;font style=&quot;font-size: 28px;&quot;&gt;6&lt;/font&gt;" style="ellipse;whiteSpace=wrap;html=1;aspect=fixed;" vertex="1" parent="1">
          <mxGeometry x="350" y="330" width="80" height="80" as="geometry" />
        </mxCell>
        <mxCell id="d0uKtJr3sExeUl2TqwTk-39" value="&lt;font style=&quot;font-size: 28px;&quot;&gt;0&lt;/font&gt;" style="ellipse;whiteSpace=wrap;html=1;aspect=fixed;" vertex="1" parent="1">
          <mxGeometry x="50" y="360" width="80" height="80" as="geometry" />
        </mxCell>
        <mxCell id="d0uKtJr3sExeUl2TqwTk-42" value="&lt;font style=&quot;font-size: 28px;&quot;&gt;4&lt;/font&gt;" style="ellipse;whiteSpace=wrap;html=1;aspect=fixed;" vertex="1" parent="1">
          <mxGeometry x="350" y="490" width="80" height="80" as="geometry" />
        </mxCell>
        <mxCell id="d0uKtJr3sExeUl2TqwTk-44" value="&lt;font style=&quot;font-size: 28px;&quot;&gt;2&lt;/font&gt;" style="ellipse;whiteSpace=wrap;html=1;aspect=fixed;" vertex="1" parent="1">
          <mxGeometry x="170" y="490" width="80" height="80" as="geometry" />
        </mxCell>
      </root>
    </mxGraphModel>
  </diagram>
</mxfile>
